<svg xmlns="http://www.w3.org/2000/svg" width="40" height="40" fill="none" viewBox="0 0 40 40">
  <path fill="#3b82f6" fill-rule="evenodd" d="M25.5557 11.6853C23.9112 10.5865 21.9778 10 20 10V0c3.9556 0 7.8224 1.17298 11.1114 3.37061 3.289 2.19762 5.8524 5.3212 7.3662 8.97569 1.5137 3.6545 1.9098 7.6759 1.1381 11.5555s-2.6765 7.4433-5.4736 10.2403c-2.797 2.7971-6.3607 4.7019-10.2403 5.4736s-7.901.3756-11.5555-1.1381c-3.65449-1.5138-6.77807-4.0772-8.97569-7.3662C1.17298 27.8224 0 23.9556 0 20h10c0 1.9778.5865 3.9112 1.6853 5.5557 1.0988 1.6445 2.6606 2.9262 4.4879 3.6831 1.8272.7569 3.8379.9549 5.7777.569 1.9398-.3858 3.7216-1.3382 5.1202-2.7367 1.3985-1.3986 2.3509-3.1804 2.7367-5.1202.3859-1.9398.1879-3.9505-.569-5.7777-.7569-1.8273-2.0386-3.3891-3.6831-4.4879Z" class="ccustom" clip-rule="evenodd"/>
  <path fill="#3b82f6" fill-rule="evenodd" d="M10 5.2e-7C10 1.31322 9.74135 2.61358 9.2388 3.82683c-.50255 1.21326-1.23914 2.31565-2.16773 3.24424-.92858.92859-2.03097 1.66518-3.24423 2.16773C2.61358 9.74134 1.31322 10 .00000544 10l-4.3e-7 10C2.62644 20 5.22716 19.4827 7.65368 18.4776s4.63132-2.4783 6.48842-4.3355c1.8572-1.8571 3.3304-4.0619 4.3355-6.48843C19.4827 5.22715 20 2.62643 20-.00000381L10 5.2e-7Z" class="ccustom" clip-rule="evenodd"/>
</svg>